<svg width="22" height="22" viewBox="0 0 22 22" fill="none" xmlns="http://www.w3.org/2000/svg">
<path d="M6.1875 20.625C6.75704 20.625 7.21875 20.1633 7.21875 19.5938C7.21875 19.0242 6.75704 18.5625 6.1875 18.5625C5.61796 18.5625 5.15625 19.0242 5.15625 19.5938C5.15625 20.1633 5.61796 20.625 6.1875 20.625Z" fill="#DEDEDE"/>
<path d="M6.875 17.1875H5.5V14.4375H6.875C7.23967 14.4375 7.58941 14.2926 7.84727 14.0348C8.10513 13.7769 8.25 13.4272 8.25 13.0625C8.25 12.6978 8.10513 12.3481 7.84727 12.0902C7.58941 11.8324 7.23967 11.6875 6.875 11.6875H5.5C5.13544 11.6879 4.78591 11.8328 4.52813 12.0906C4.27035 12.3484 4.12536 12.6979 4.125 13.0625V13.4062H2.75V13.0625C2.75091 12.3334 3.04093 11.6345 3.55646 11.119C4.07199 10.6034 4.77093 10.3134 5.5 10.3125H6.875C7.60435 10.3125 8.30382 10.6022 8.81954 11.118C9.33527 11.6337 9.625 12.3332 9.625 13.0625C9.625 13.7918 9.33527 14.4913 8.81954 15.007C8.30382 15.5228 7.60435 15.8125 6.875 15.8125V17.1875Z" fill="#DEDEDE"/>
<path d="M19.0438 6.39399L14.2313 1.58149C14.1708 1.51432 14.0964 1.46108 14.0133 1.42547C13.9302 1.38986 13.8404 1.37272 13.75 1.37524H6.875C6.51066 1.37633 6.16156 1.52155 5.90393 1.77917C5.6463 2.0368 5.50109 2.3859 5.5 2.75024V8.25024H6.875V2.75024H12.375V6.87524C12.3761 7.23958 12.5213 7.58868 12.7789 7.84631C13.0366 8.10394 13.3857 8.24915 13.75 8.25024H17.875V19.2502H9.625V20.6252H17.875C18.2393 20.6242 18.5884 20.4789 18.8461 20.2213C19.1037 19.9637 19.2489 19.6146 19.25 19.2502V6.87524C19.2524 6.78489 19.2352 6.69508 19.1996 6.612C19.164 6.52892 19.1109 6.45455 19.0438 6.39399ZM13.75 6.87524V3.02524L17.6 6.87524H13.75Z" fill="#DEDEDE"/>
</svg>
