<svg viewBox="0 0 70 42" fill="none" xmlns="http://www.w3.org/2000/svg">
<path d="M41.6009 23.4994C41.6295 22.052 41.6009 20.5761 41.6009 19.1003C41.6009 18.0502 41.3441 16.2054 43.1132 16.2622C44.7681 16.3189 44.5398 18.0786 44.5398 19.1571C44.5398 20.6045 44.5113 22.052 44.5398 23.5278H46.1947V19.1854C46.1947 18.1353 45.9665 16.3189 47.707 16.2906C49.4189 16.2622 49.1622 18.107 49.1622 19.2138C49.1622 20.6329 49.1336 22.0803 49.1622 23.5278H50.9027C50.9312 22.2222 50.9027 20.9167 50.9027 19.6112C50.9027 18.334 51.0168 17.1704 50.4176 16.177C49.5045 14.6728 46.7369 14.1052 45.4243 16.3189C45.2246 16.1487 45.1105 15.7513 44.5969 15.3824C43.3985 14.5593 41.6295 14.8715 39.889 14.8715V23.5278L41.6009 23.4994ZM68.2222 19.895C68.1366 20.718 67.8798 21.3992 67.4518 21.7965C66.2534 22.9034 63.4286 22.6196 63.8281 18.5894C63.9707 17.1136 64.9123 15.7513 66.6528 16.2338C67.9654 16.6028 68.3648 18.1921 68.2222 19.895ZM62.0305 19.7815C62.2017 22.1655 63.8852 23.9535 66.4531 23.6981C69.1067 23.4426 70.1053 21.1438 69.9912 18.7597C69.7059 13.2822 61.574 13.3105 62.0305 19.7815ZM33.0125 16.177C34.696 15.8648 35.5234 17.2839 35.609 18.8165C35.6946 20.2356 35.4378 22.0236 33.7829 22.3074C32.0995 22.5912 31.2435 21.2573 31.1579 19.6963C31.1008 17.9651 31.5003 16.4892 33.0125 16.177ZM37.3781 19.6963C37.749 15.1837 33.2408 13.4808 30.6728 15.8648C29.988 16.4892 29.503 17.511 29.4174 18.7881C29.2176 21.4276 30.5872 23.471 32.9269 23.6981C34.4392 23.8683 35.6946 23.244 36.4079 22.3925C36.6647 22.0803 36.8359 21.7965 37.0071 21.3992C37.2354 20.8883 37.3495 20.3207 37.3781 19.6963ZM21.7135 16.3189C23.9676 16.1487 25.3086 16.8298 25.3942 19.0152C25.4798 21.2857 24.4241 22.1939 22.2271 22.1939H21.7135V16.3189ZM20.03 23.4994C21.4567 23.5845 23.939 23.6413 25.166 22.9318C26.3358 22.279 27.1918 21.1154 27.1918 19.2422C27.1918 16.3473 25.2516 15.1269 22.8548 15.0134C22.17 14.985 20.7148 14.9283 20.0586 15.0134L20.03 23.4994ZM55.4109 16.3473H59.6623C59.6908 16.0635 59.7193 15.2405 59.6337 15.0134H54.2981C54.0984 15.0134 53.7274 14.9283 53.7274 15.1269V23.4994H59.7764L59.8049 22.1371H55.4109V19.7815H59.434V18.4759H55.4109V16.3473Z" fill="#272727"/>
<path d="M0.855988 0H41.5725V12.9986H39.8605V1.70287H1.71198V40.0459H39.8605V25.5147H41.5725V41.7487H0V0H0.855988Z" fill="#FFDB48"/>
</svg>
