<svg width="22" height="22" viewBox="0 0 22 22" fill="none" xmlns="http://www.w3.org/2000/svg">
<path d="M10.9998 11C13.5311 11 15.5832 8.94795 15.5832 6.41665C15.5832 3.88534 13.5311 1.83331 10.9998 1.83331C8.46853 1.83331 6.4165 3.88534 6.4165 6.41665C6.4165 8.94795 8.46853 11 10.9998 11Z" stroke="#DEDEDE" stroke-width="2"/>
<path d="M15.5833 20.1666H4.82714C4.56716 20.1667 4.31014 20.1115 4.07313 20.0046C3.83613 19.8977 3.62457 19.7417 3.45249 19.5468C3.2804 19.3519 3.15174 19.1227 3.07503 18.8742C2.99832 18.6258 2.97532 18.364 3.00756 18.106L3.36506 15.2423C3.4482 14.577 3.77152 13.965 4.27424 13.5214C4.77695 13.0777 5.42442 12.8331 6.09489 12.8333H6.41664" stroke="#DEDEDE" stroke-width="2" stroke-linecap="round" stroke-linejoin="round"/>
<path d="M14.6665 14.6666L16.729 16.5L20.1665 12.8333" stroke="#DEDEDE" stroke-width="2" stroke-linecap="round" stroke-linejoin="round"/>
</svg>
