<svg width="62" height="62" viewBox="0 0 62 62" fill="none" xmlns="http://www.w3.org/2000/svg">
<path d="M37.5798 3.875L34.0787 39.1753H27.9213L24.4203 3.875H37.5798ZM39.7188 1.9375H22.2812L26.1659 41.1128H35.8331L39.7188 1.9375Z" fill="#0260E8"/>
<path d="M30.9999 47.1849C34.0244 47.1849 36.485 49.6388 36.485 52.6545C36.485 55.6702 34.0244 58.125 30.9999 58.125C27.9745 58.125 25.5129 55.6712 25.5129 52.6555C25.5129 49.6397 27.9745 47.1849 30.9999 47.1849ZM30.9999 45.2474C26.8992 45.2474 23.5754 48.5644 23.5754 52.6545C23.5754 56.7446 26.8992 60.0625 30.9999 60.0625C35.0997 60.0625 38.4225 56.7455 38.4225 52.6555C38.4225 48.5654 35.0997 45.2474 30.9999 45.2474Z" fill="#0260E8"/>
</svg>
